
<!-- Generator: visioncortex VTracer 0.6.4 -->
<svg version="1.1" xmlns="http://www.w3.org/2000/svg" viewBox="0 0 32 32" preserveAspectRatio="xMidYMid meet">
<path d="M0 0 C10.56 0 21.12 0 32 0 C32 10.56 32 21.12 32 32 C21.44 32 10.88 32 0 32 C0 21.44 0 10.88 0 0 Z " fill="#F6F7F7" transform="translate(0,0)"/>
<path d="M0 0 C2.753 1.796 4.526 3.053 6 6 C6.411 10.626 5.855 13.299 3 17 C2.01 17.33 1.02 17.66 0 18 C-0.66 17.34 -1.32 16.68 -2 16 C-1.175 15.649 -0.35 15.299 0.5 14.938 C3.391 13.161 3.391 13.161 3.5 9.5 C3.303 6.062 3.303 6.062 1.5 4.062 C1.005 3.712 0.51 3.361 0 3 C0.351 3.536 0.701 4.072 1.062 4.625 C2.289 7.733 1.729 9.794 1 13 C0.67 12.01 0.34 11.02 0 10 C-2.31 10 -4.62 10 -7 10 C-7 10.66 -7 11.32 -7 12 C-7.66 12 -8.32 12 -9 12 C-9.201 8.375 -8.858 6.135 -7 3 C-8.625 4.121 -8.625 4.121 -10 6 C-10.421 9.957 -10.091 12.603 -8 16 C-11.875 14.25 -11.875 14.25 -13 12 C-13.43 8.128 -13.317 6.475 -11.125 3.188 C-7.572 -0.47 -5.031 -0.426 0 0 Z M-7 12 C-6.01 12.99 -5.02 13.98 -4 15 C-4.99 15.495 -4.99 15.495 -6 16 C-6.33 14.68 -6.66 13.36 -7 12 Z " fill="#386FF3" transform="translate(22,7)"/>
<path d="M0 0 C0.66 0.33 1.32 0.66 2 1 C1.288 1.835 1.288 1.835 0.562 2.688 C-1.124 5.183 -1.59 7.045 -2 10 C-1.34 10 -0.68 10 0 10 C0 9.34 0 8.68 0 8 C2.333 7.958 4.667 7.959 7 8 C7.33 8.33 7.66 8.66 8 9 C7.412 5.976 6.773 2.982 6 0 C9.875 1.75 9.875 1.75 11 4 C11.484 8.194 11.391 11.056 8.938 14.5 C6 17 6 17 2.375 17.25 C-1 16 -1 16 -2.938 13.312 C-4.046 9.857 -4.546 7.588 -4 4 C-2 1.625 -2 1.625 0 0 Z M0 10 C0.33 11.32 0.66 12.64 1 14 C1.66 13.67 2.32 13.34 3 13 C2.01 12.01 1.02 11.02 0 10 Z " fill="#396FF3" transform="translate(15,9)"/>
<path d="M0 0 C0.66 0.33 1.32 0.66 2 1 C1.67 2.98 1.34 4.96 1 7 C0.67 6.01 0.34 5.02 0 4 C-2.31 4 -4.62 4 -7 4 C-7 4.66 -7 5.32 -7 6 C-7.66 6 -8.32 6 -9 6 C-9 4.35 -9 2.7 -9 1 C-6.03 1.33 -3.06 1.66 0 2 C0 1.34 0 0.68 0 0 Z M-7 6 C-6.01 6.99 -5.02 7.98 -4 9 C-4.99 9.495 -4.99 9.495 -6 10 C-6.33 8.68 -6.66 7.36 -7 6 Z " fill="#2B65F3" transform="translate(22,13)"/>
<path d="M0 0 C0.99 0.33 1.98 0.66 3 1 C2.01 1.701 1.02 2.402 0 3.125 C-2.532 5.233 -2.944 5.655 -3.5 9.062 C-3.036 11.791 -2.442 13.658 -1 16 C-4.875 14.25 -4.875 14.25 -6 12 C-6.43 8.128 -6.317 6.475 -4.125 3.188 C-2 1 -2 1 0 0 Z " fill="#4074F3" transform="translate(15,7)"/>
<path d="M0 0 C3.875 1.75 3.875 1.75 5 4 C5.465 10.399 5.465 10.399 3.5 12.938 C3.005 13.288 2.51 13.639 2 14 C1.34 13.67 0.68 13.34 0 13 C0.351 12.443 0.701 11.886 1.062 11.312 C2.242 8.404 1.822 6.989 1 4 C0.814 3.237 0.629 2.474 0.438 1.688 C0.293 1.131 0.149 0.574 0 0 Z " fill="#E6EBF6" transform="translate(21,9)"/>
<path d="M0 0 C0.66 0.33 1.32 0.66 2 1 C1.505 1.557 1.01 2.114 0.5 2.688 C-1.313 5.482 -1.479 6.725 -1 10 C0.408 12.764 0.408 12.764 2 15 C-1.161 13.63 -1.993 13.011 -4 10 C-4.375 7.062 -4.375 7.062 -4 4 C-2 1.625 -2 1.625 0 0 Z " fill="#E5EAF6" transform="translate(15,9)"/>
<path d="M0 0 C0.66 0.33 1.32 0.66 2 1 C1.521 5.314 0.254 7.166 -3 10 C-3.99 9.34 -4.98 8.68 -6 8 C-4.793 7.412 -4.793 7.412 -3.562 6.812 C-0.769 5.231 -0.769 5.231 -0.188 2.312 C-0.126 1.549 -0.064 0.786 0 0 Z " fill="#4779F3" transform="translate(26,15)"/>
<path d="M0 0 C1.65 0 3.3 0 5 0 C4.34 1.65 3.68 3.3 3 5 C1.5 3.625 1.5 3.625 0 2 C0 1.34 0 0.68 0 0 Z " fill="#E2E9F6" transform="translate(16,18)"/>
<path d="M0 0 C1.5 1.375 1.5 1.375 3 3 C3 3.66 3 4.32 3 5 C1.35 5 -0.3 5 -2 5 C-1.34 3.35 -0.68 1.7 0 0 Z " fill="#DAE3F6" transform="translate(18,10)"/>
<path d="M0 0 C1.65 1.65 3.3 3.3 5 5 C4.01 5 3.02 5 2 5 C1.34 4.34 0.68 3.68 0 3 C0 2.01 0 1.02 0 0 Z " fill="#D8E2F6" transform="translate(12,18)"/>
<path d="M0 0 C1.98 0.99 1.98 0.99 4 2 C4 2.99 4 3.98 4 5 C3.01 4.67 2.02 4.34 1 4 C0.312 1.938 0.312 1.938 0 0 Z " fill="#DBE3F6" transform="translate(21,9)"/>
</svg>